HIERARCHY
ROOT Hips
{
	OFFSET 0.00000 0.00000 0.00000
	CHANNELS 6 Xposition Yposition Zposition Zrotation Yrotation Xrotation 
	JOINT LHipJoint
	{
		OFFSET 0 0 0
		CHANNELS 3 Zrotation Yrotation Xrotation
		JOINT LeftHip
		{
			OFFSET 1.62329 -1.80800 0.67318
			CHANNELS 3 Zrotation Yrotation Xrotation
			JOINT LeftKnee
			{
				OFFSET 2.57139 -7.06484 0.00000
				CHANNELS 3 Zrotation Yrotation Xrotation
				JOINT LeftAnkle
				{
					OFFSET 2.52017 -6.92413 0.00000
					CHANNELS 3 Zrotation Yrotation Xrotation
					JOINT LeftToe
					{
						OFFSET 0.23295 -0.64001 2.10214
						CHANNELS 3 Zrotation Yrotation Xrotation
						End Site
						{
							OFFSET 0.00000 -0.00000 1.10139
						}
					}
				}
			}
		}
	}
	JOINT RHipJoint
	{
		OFFSET 0 0 0
		CHANNELS 3 Zrotation Yrotation Xrotation
		JOINT RightHip
		{
			OFFSET -1.48061 -1.80800 0.67318
			CHANNELS 3 Zrotation Yrotation Xrotation
			JOINT RightKnee
			{
				OFFSET -2.63258 -7.23296 0.00000
				CHANNELS 3 Zrotation Yrotation Xrotation
				JOINT RightAnkle
				{
					OFFSET -2.54779 -7.00000 0.00000
					CHANNELS 3 Zrotation Yrotation Xrotation
					JOINT RightToe
					{
						OFFSET -0.23067 -0.63376 2.12161
						CHANNELS 3 Zrotation Yrotation Xrotation
						End Site
						{
							OFFSET -0.00000 -0.00000 1.11000
						}
					}
				}
			}
		}
	}
	JOINT lowerback
	{
		OFFSET 0 0 0
		CHANNELS 3 Zrotation Yrotation Xrotation
		JOINT Chest
		{
			OFFSET -0.02108 2.07573 -0.16981
			CHANNELS 3 Zrotation Yrotation Xrotation
			JOINT Chest2
			{
				OFFSET 0.05070 2.08439 -0.03141
				CHANNELS 3 Zrotation Yrotation Xrotation
				JOINT lowerneck
				{
					OFFSET 0 0 0
					CHANNELS 3 Zrotation Yrotation Xrotation
					JOINT Neck
					{
						OFFSET -0.10731 1.60408 0.31370
						CHANNELS 3 Zrotation Yrotation Xrotation
						JOINT Head
						{
							OFFSET 0.08411 1.65679 -0.30822
							CHANNELS 3 Zrotation Yrotation Xrotation
							End Site
							{
								OFFSET 0.03911 1.69149 -0.14146
							}
						}
					}
				}
				JOINT LeftCollar
				{
					OFFSET 0 0 0
					CHANNELS 3 Zrotation Yrotation Xrotation
					JOINT LeftShoulder
					{
						OFFSET 3.52315 0.73219 -0.54694
CHANNELS 3 Zrotation Xrotation Yrotation
						JOINT LeftElbow
						{
OFFSET 0 -5.324620 -0.000000
CHANNELS 3 Zrotation Xrotation Yrotation
							JOINT LeftWrist
							{
OFFSET 0 -3.484020 -0.000000
CHANNELS 3 Zrotation Xrotation Yrotation
								JOINT lhand
								{
									OFFSET 0 0 0
CHANNELS 3 Zrotation Xrotation Yrotation
									JOINT LFingers
									{
OFFSET 0 -0.572480 -0.000000
CHANNELS 3 Zrotation Xrotation Yrotation
										End Site
										{
OFFSET 0 -0.461540 -0.000000
										}
									}
								}
								JOINT LThumb
								{
OFFSET 0 0.000000 0.000000
CHANNELS 3 Zrotation Xrotation Yrotation
									End Site
									{
OFFSET 0 -0.468590 0.468590
									}
								}
							}
						}
					}
				}
				JOINT RightCollar
				{
					OFFSET 0 0 0
					CHANNELS 3 Zrotation Yrotation Xrotation
					JOINT RightShoulder
					{
						OFFSET -3.41766 0.93592 -0.10019
CHANNELS 3 Zrotation Xrotation Yrotation
						JOINT RightElbow
						{
OFFSET 0 -5.335890 -0.000000
CHANNELS 3 Zrotation Xrotation Yrotation
							JOINT RightWrist
							{
OFFSET 0 -3.641340 -0.000000
CHANNELS 3 Zrotation Xrotation Yrotation
								JOINT rhand
								{
									OFFSET 0 0 0
CHANNELS 3 Zrotation Xrotation Yrotation
									JOINT RFingers
									{
OFFSET 0 -0.734810 -0.000000
CHANNELS 3 Zrotation Xrotation Yrotation
										End Site
										{
OFFSET 0 -0.592420 -0.000000
										}
									}
								}
								JOINT RThumb
								{
OFFSET 0 0.000000 0.000000
CHANNELS 3 Zrotation Xrotation Yrotation
									End Site
									{
OFFSET 0 -0.601470 0.601470
									}
								}
							}
						}
					}
				}
			}
		}
	}
}
MOTION
Frames: 5
Frame Time: 0.008333333333333333
13.750400 17.817400 0.030200 4.052000 -5.896200 20.035400 0.000000 0.000000 0.000000 -24.322200 -14.122700 -31.864600 1.479600 7.685600 21.763100 -0.768900 -15.976300 1.032000 0.014100 0.765700 2.104300 0.000000 0.000000 0.000000 14.894700 -14.965100 -34.977100 -3.922400 -12.056400 35.931900 -2.566600 -8.124300 -33.971900 -0.056100 1.527700 -4.202200 1.977100 3.141800 13.926900 7.102700 4.577100 5.612400 5.643100 2.217200 -2.301200 -9.040400 -11.496700 -9.584800 9.762500 -17.107400 26.838500 2.697900 -7.463700 12.066400 -0.000000 0.000000 0.000000 5.998800 -17.512100 -47.606500 109.299100 -58.544800 76.631900 -0.459000 -57.407500 -22.472400 0.000000 0.000000 0.000000 -7.125000 0.000000 0.000000 -28.876600 50.074400 3.899400 -0.000000 0.000000 0.000000 -18.904000 -25.516000 17.099800 -13.913000 -22.610200 -2.794600 -39.315500 56.369700 4.480100 0.000000 0.000000 0.000000 7.125000 0.000000 -0.000000 -10.563100 35.595100 -2.475700
13.735380 17.760292 0.065028 5.222715 -4.567581 19.249885 0.000000 0.000000 0.000000 -25.580232 -15.082806 -30.920927 1.562803 7.888855 22.377047 -0.746338 -15.787748 0.880253 0.014678 0.781141 2.146757 0.000000 0.000000 0.000000 13.709530 -15.438466 -33.820166 -3.981903 -12.136343 36.215872 -3.015504 -7.778675 -36.192215 -0.014481 0.777223 -2.136023 2.608366 4.009541 14.431311 7.473712 5.844589 5.628518 5.440134 2.848314 -2.639920 -9.543809 -12.873511 -8.596387 9.587243 -18.875357 26.249493 2.466371 -8.348261 11.879481 0.000000 0.000000 0.000000 7.333747 -10.936605 -43.934939 127.732898 -53.866253 92.003923 -0.256570 -51.310898 -19.209180 0.000000 0.000000 0.000000 -7.125000 0.000000 0.000000 -26.967755 47.218252 1.589057 0.000000 0.000000 0.000000 -15.484265 -30.419132 22.219332 -14.835281 -23.915870 -3.158990 -41.423072 55.080125 2.550343 0.000000 0.000000 0.000000 7.125000 0.000000 0.000000 -12.040322 33.201344 -3.548848
13.720348 17.688240 0.121627 6.077355 -4.771785 18.497403 0.000000 0.000000 0.000000 -27.056325 -14.448149 -31.017370 1.813278 8.465825 24.138220 -0.694672 -16.193481 -1.579231 0.015218 -0.791501 -2.175214 0.000000 0.000000 0.000000 12.064268 -14.010163 -32.070343 -4.011124 -12.175245 36.354759 -3.419054 -7.646374 -38.157819 -0.005507 0.451199 -1.239763 3.463943 5.807807 14.953690 7.836998 8.331223 5.933973 4.880368 4.073901 -2.721511 -9.307862 -14.550285 -7.861745 9.219205 -21.137581 25.793850 1.968153 -9.383150 11.742259 0.000000 0.000000 0.000000 8.133346 -6.951739 -37.345813 135.550979 -50.495499 98.187124 2.324363 -50.815583 -18.563586 0.000000 0.000000 0.000000 -7.125000 0.000000 0.000000 -24.388352 46.978869 1.264898 0.000000 0.000000 0.000000 -12.114535 -36.830469 28.806751 -15.883279 -25.362125 -3.595843 -40.461067 45.282617 -2.060319 0.000000 0.000000 0.000000 7.125000 0.000000 0.000000 -10.605396 27.227930 -4.652262
13.666235 17.629477 0.188762 6.695987 -4.626830 17.937519 0.000000 0.000000 0.000000 -27.742861 -14.170006 -31.039352 2.012392 8.891808 25.457517 -0.688609 -16.479820 -2.284630 0.013702 -0.755781 -2.077054 0.000000 0.000000 0.000000 11.507235 -15.099812 -31.582910 -4.103124 -12.296429 36.788692 -3.431657 -6.821312 -37.819016 -0.020347 0.921200 -2.531960 3.735412 7.382602 15.965770 8.264721 10.538280 5.815046 4.643865 5.147874 -3.562869 -9.421569 -15.994455 -7.811658 9.449917 -23.291859 26.297266 1.668752 -10.257146 12.225564 0.000000 0.000000 0.000000 8.199556 -4.472188 -32.408208 139.333365 -48.459552 101.063153 0.592216 -51.666005 -14.459478 0.000000 0.000000 0.000000 -7.125000 0.000000 0.000000 -24.171789 43.034852 -1.250874 0.000000 0.000000 0.000000 -9.351498 -41.572768 32.890625 -16.500153 -26.193888 -3.864211 -39.937747 44.116694 -3.910887 0.000000 0.000000 0.000000 7.125000 0.000000 0.000000 -9.944417 24.881187 -4.907132
13.587818 17.664551 0.304137 6.531499 -2.970344 17.553816 0.000000 0.000000 0.000000 -27.502827 -13.866248 -29.716316 1.897837 8.649816 24.705885 -0.844456 -17.779371 -1.686259 0.000717 0.082229 0.225862 0.000000 0.000000 0.000000 10.568255 -15.867175 -31.987737 -5.024086 -13.410170 40.925279 -2.662182 -5.858847 -33.303738 -0.245035 3.161484 -8.730711 4.486298 7.739746 16.931014 8.241328 11.243506 5.403807 3.923967 5.471986 -4.411762 -9.112609 -16.521390 -7.966897 10.522624 -24.353148 26.005657 1.787618 -10.571153 12.391219 0.000000 0.000000 0.000000 6.901211 -4.290077 -25.467813 140.636864 -47.687690 102.033072 0.472675 -56.519868 -13.860577 0.000000 0.000000 0.000000 -7.125000 0.000000 0.000000 -24.044998 42.476018 -1.599302 0.000000 0.000000 0.000000 -7.640434 -40.723063 35.913995 -19.808777 -30.410121 -5.434743 -40.388247 44.192970 -3.621410 0.000000 0.000000 0.000000 7.125000 0.000000 0.000000 -10.318156 25.218996 -5.016538
